<?xml version="1.0" encoding="UTF-8" standalone="no"?>
<svg
   viewBox="0 0 500 820"
   version="1.1"
   xml:space="preserve"
   style="fill-rule: evenodd; clip-rule: evenodd; stroke-linecap: round;"
   id="svg1808"
   sodipodi:docname="marker-shop.svg"
   inkscape:version="1.2.2 (b0a84865, 2022-12-01)"
   xmlns:inkscape="http://www.inkscape.org/namespaces/inkscape"
   xmlns:sodipodi="http://sodipodi.sourceforge.net/DTD/sodipodi-0.dtd"
   xmlns="http://www.w3.org/2000/svg"
   xmlns:svg="http://www.w3.org/2000/svg"><sodipodi:namedview
   id="namedview1810"
   pagecolor="#ffffff"
   bordercolor="#666666"
   borderopacity="1.0"
   inkscape:showpageshadow="2"
   inkscape:pageopacity="0.0"
   inkscape:pagecheckerboard="0"
   inkscape:deskcolor="#d1d1d1"
   showgrid="false"
   inkscape:zoom="1.3458745"
   inkscape:cx="249.65181"
   inkscape:cy="416.08634"
   inkscape:window-width="1599"
   inkscape:window-height="1278"
   inkscape:window-x="0"
   inkscape:window-y="25"
   inkscape:window-maximized="0"
   inkscape:current-layer="g2219" />
    <defs
   id="defs1800">
        <linearGradient
   x1="0"
   y1="0"
   x2="1"
   y2="0"
   gradientUnits="userSpaceOnUse"
   gradientTransform="matrix(0,-734.1035,734.1035,0,249.13867,764.60016)"
   id="map-marker-38-f">
            <stop
   offset="0"
   stop-color="rgb(18,111,198)"
   id="stop1790" />
            <stop
   offset="1"
   stop-color="rgb(76,156,209)"
   id="stop1792" />
        </linearGradient>
        <linearGradient
   x1="0"
   y1="0"
   x2="1"
   y2="0"
   gradientUnits="userSpaceOnUse"
   gradientTransform="matrix(0,-372.32801,372.32801,0,210.5829,402.82467)"
   id="map-marker-38-s">
            <stop
   offset="0"
   stop-color="rgb(46,108,151)"
   id="stop1795" />
            <stop
   offset="1"
   stop-color="rgb(56,131,183)"
   id="stop1797" />
        </linearGradient>





</defs>
    <path
   d="m 250.87788,33.99462 c -128.44759,0 -235.36023,111.21182 -235.36023,231.88181 0,54.28685 30.563219,123.26905 52.64534,170.91171 L 250.01805,786.0374 431.01328,436.78814 c 22.08212,-47.64266 53.50517,-113.16598 53.50517,-170.91171 0,-120.66999 -105.19297,-231.88181 -233.64057,-231.88181 z"
   stroke-width="21.4959px"
   fill="url(#map-marker-38-f)"
   stroke="url(#map-marker-38-s)"
   id="path1804"
   style="fill:url(#map-marker-38-f);stroke:url(#map-marker-38-s)"
   sodipodi:nodetypes="sscccss" />
<g
   style="fill:none;stroke:#ffffff"
   id="g2219"
   transform="matrix(17.145765,0,0,21.176847,-356.99029,535.35444)"><path
     id="Vector"
     d="m 28.514133,-17.81991 h 0.176908 c 0.312335,0 0.468774,0 0.596166,0.04762 0.112315,0.04198 0.208347,0.109573 0.277593,0.195283 0.07841,0.09705 0.106725,0.226645 0.163242,0.485326 l 1.423087,6.51354 h 6.870465 c 0.298769,0 0.448614,0 0.572354,-0.04462 0.109369,-0.03938 0.20364,-0.103223 0.273652,-0.184386 0.07917,-0.09175 0.11273,-0.214579 0.179709,-0.460019 l 5.28e-4,-0.0017 1.034483,-3.788024 2.63e-4,-7.79e-4 c 0.101656,-0.372328 0.152615,-0.558948 0.09664,-0.705326 -0.04911,-0.128436 -0.152417,-0.23733 -0.289473,-0.306639 -0.156372,-0.07906 -0.382229,-0.07906 -0.835194,-0.07906 h -8.892322 m 8.240529,8.3558844 c -0.3641,0 -0.659242,-0.2493953 -0.659242,-0.5570589 0,-0.3076637 0.295142,-0.557059 0.659242,-0.557059 0.3641,0 0.659242,0.2493953 0.659242,0.557059 0,0.3076636 -0.295142,0.5570589 -0.659242,0.5570589 z m -6.592423,0 c -0.364087,0 -0.659243,-0.2493953 -0.659243,-0.5570589 0,-0.3076637 0.295156,-0.557059 0.659243,-0.557059 0.364086,0 0.659242,0.2493953 0.659242,0.557059 0,0.3076636 -0.295156,0.5570589 -0.659242,0.5570589 z"
     stroke="#000000"
     stroke-width="1.212"
     stroke-linecap="round"
     stroke-linejoin="round"
     style="stroke:#ffffff" /></g></svg>
