<?xml version="1.0" encoding="UTF-8" standalone="no"?>
<svg
   viewBox="0 0 500 820"
   version="1.1"
   xml:space="preserve"
   style="fill-rule: evenodd; clip-rule: evenodd; stroke-linecap: round;"
   id="svg1808"
   sodipodi:docname="marker-restaurant.svg"
   inkscape:version="1.2.2 (b0a84865, 2022-12-01)"
   xmlns:inkscape="http://www.inkscape.org/namespaces/inkscape"
   xmlns:sodipodi="http://sodipodi.sourceforge.net/DTD/sodipodi-0.dtd"
   xmlns="http://www.w3.org/2000/svg"
   xmlns:svg="http://www.w3.org/2000/svg"><sodipodi:namedview
   id="namedview1810"
   pagecolor="#ffffff"
   bordercolor="#666666"
   borderopacity="1.0"
   inkscape:showpageshadow="2"
   inkscape:pageopacity="0.0"
   inkscape:pagecheckerboard="0"
   inkscape:deskcolor="#d1d1d1"
   showgrid="false"
   inkscape:zoom="1.3458745"
   inkscape:cx="213.24425"
   inkscape:cy="416.08634"
   inkscape:window-width="1599"
   inkscape:window-height="1200"
   inkscape:window-x="0"
   inkscape:window-y="25"
   inkscape:window-maximized="0"
   inkscape:current-layer="svg1808" />
    <defs
   id="defs1800">
        <linearGradient
   x1="0"
   y1="0"
   x2="1"
   y2="0"
   gradientUnits="userSpaceOnUse"
   gradientTransform="matrix(0,-734.1035,734.1035,0,249.13867,764.60016)"
   id="map-marker-38-f">
            <stop
   offset="0"
   stop-color="rgb(18,111,198)"
   id="stop1790" />
            <stop
   offset="1"
   stop-color="rgb(76,156,209)"
   id="stop1792" />
        </linearGradient>
        <linearGradient
   x1="0"
   y1="0"
   x2="1"
   y2="0"
   gradientUnits="userSpaceOnUse"
   gradientTransform="matrix(0,-372.32801,372.32801,0,210.5829,402.82467)"
   id="map-marker-38-s">
            <stop
   offset="0"
   stop-color="rgb(46,108,151)"
   id="stop1795" />
            <stop
   offset="1"
   stop-color="rgb(56,131,183)"
   id="stop1797" />
        </linearGradient>





</defs>
    <path
   fill="#ffffff"
   d="m 341.86404,266.30635 c 0,50.80842 -41.03757,91.84599 -91.84599,91.84599 -50.80842,0 -91.84599,-41.03757 -91.84599,-91.84599 0,-50.80842 41.03757,-91.84599 91.84599,-91.84599 50.80842,0 91.84599,41.03757 91.84599,91.84599 z"
   id="path1802"
   style="stroke-width:19.5417" /><path
   d="m 250.87788,33.99462 c -128.44759,0 -235.36023,111.21182 -235.36023,231.88181 0,54.28685 30.563219,123.26905 52.64534,170.91171 L 250.01805,786.0374 431.01328,436.78814 c 22.08212,-47.64266 53.50517,-113.16598 53.50517,-170.91171 0,-120.66999 -105.19297,-231.88181 -233.64057,-231.88181 z"
   stroke-width="21.4959px"
   fill="url(#map-marker-38-f)"
   stroke="url(#map-marker-38-s)"
   id="path1804"
   style="fill:url(#map-marker-38-f);stroke:url(#map-marker-38-s)"
   sodipodi:nodetypes="sscccss" />
<path
   d="m 269.34188,339.86889 c 4.33351,71.07642 8.71567,142.1584 13.09785,213.24039 0.63342,7.42911 -12.2759,17.483 -29.90371,17.43716 -17.62795,0.0431 -30.57145,-10.03209 -29.9298,-17.47736 4.60236,-71.28422 9.13659,-142.55175 13.70001,-213.84709 l 1.16025,-17.74318 c -0.01,0.0388 -0.01,0.0612 -0.0205,0.10024 0,0 1.81064,-0.12166 0.0205,-0.10024 1.06171,-16.7757 2.14288,-33.55138 3.21439,-50.33266 -34.78224,-5.20718 -56.98717,-27.66938 -53.6512,-49.62105 3.90433,-25.13202 16.56461,-119.28352 21.36331,-119.26496 4.74036,-0.004 1.23081,69.10118 1.30006,116.64934 l 13.85114,-1.2e-4 c 5.53741,-47.54594 9.93267,-116.62266 14.72173,-116.64304 4.75977,0.008 5.11458,69.09715 7.92874,116.6686 l 13.74407,-0.006 c 2.83146,-47.54699 3.36245,-116.65307 8.0833,-116.64566 4.77926,0.008 9.00807,69.09871 14.43088,116.64893 l 13.7539,-1.6e-4 c 0.16417,-47.53692 -3.20796,-116.62783 1.5519,-116.65374 4.79875,-0.004 21.14424,119.13154 21.17325,119.30395 -0.0386,-2e-5 -3.5515,-25.33519 -0.13654,0.0117 3.29016,24.2063 -18.98611,44.80485 -53.71217,49.58994 1.00202,16.57634 2.03333,33.13599 3.05488,49.70124 z"
   id="path2133"
   style="fill:#ffffff;stroke-width:10.4044"
   sodipodi:nodetypes="ccccccccccccccccscccccccc" /></svg>
